<svg id="Layer_3" data-name="Layer 3" xmlns="http://www.w3.org/2000/svg" viewBox="0 0 3172.33 2092.7"><defs><style>.cls-1{fill:none;stroke:#000;stroke-miterlimit:10;}</style></defs><title>kea-camp6</title><path class="cls-1" d="M2981.37,1336.44l-12.56-890h71l17.1,890m-80.43-243.65-88.33,1.34m0-57,89-1m-.76-54-89.56,1.34m88.84-52.34h-87.5m86.72-55.59h-89.56m87-54.24h-88.25m89.28-54.24h-89.53m88.77-53.26h-90m89.23-56.25-88,1.25m87.26-52h-90.51m89.76-53.5h-87.76m87-53.74h-89m88.25-51.5h-89.75m-520-364.25-75,116.75.25,1050.75m-273-803.66v-1.09l-51.42,1.34-8.25,875,28.67-1.34m302-873.25h-271l-4.25,823.5m275.25-769.33H2011m271.28,262.67H2009.68m272.63,265.33h-274m274,59.33-274-3.33m274,122.67-274-4m164.15,94h111.6v-80H2149.81v70.46m-136.33-17.8h-6.42m175.75,132-80.66-2.66v28.33l85.32,2v-28l-5.53-3.23m-79.79.9-120.67-50.67v18l120.67,61ZM2283,978.79l-274.69-2.35m274-57.31-273.42-1.67m4.92,9.67v39.66l124,1.34V928.79Zm135.34,41h128.33v-39H2149.15ZM2009.38,822.79l274.83,1.34-.15-6-274.38-1.34Zm.58-111.67,274.1,2.34V654.79H2010Zm129.19-47.33h-125v38.67h125V663.79Zm11.33,38.67h130V663.79H2150.15ZM2010.65,562.79h273.5l-.09-9H2011ZM1680.81,447l.17-1.52h-54.25l-8.86,873.39,58.62,2.59,4.07-821,.25-53.89,275.48,1.92m-.47,50.68-275.25-.69L1679,805.79m17.45-262-2.67,209.34,250-.88,1.5-208.46Zm250.83,375.59.75-93.12-269-2.13m268.28,95.25L1679,916.28l-.82,56L1954.9,977l.55-57.49m-274.14,6.83v38.5h125.5v-38.5Zm136.11,0v38.47l129.39.85V927.86Zm137,104.22-273.09-4m-.16,189.67-.67,38.33h122.33l.34-41H1677.06v-8.33h269.5l1.5-118.67-270.39-2.67m138.14,170.67,129.25,2.37v-42.36l-129.25-.68Zm-139.31,60.67v3.67l275.36,1.62v-7.09l-274.8-.54m-50.37-864.32-274.21-1.34-9.67,554.66h-29.33l-1.67,59-5.66,261.34h22.66l137.61,1.66,2.39-1.33,127.34,1.33v5h21.66l1.53-264-17.69.13.5-60.13-259.34-3m253.34,322,2.66-259-285-4.33m18.59,254.08,128.41.59,3.34-247-129-1.85-2.81,255.89m2.81-255.89v-5.82m266.69,4.33h-3m-130,249h37l4.25-248.62-38-.38ZM1515,1063.52l-3.82,259.38m-182.34-321.11,21.51-89.43-6-.08-1,57.49,278,3.06.58-56.55-271.64-3.92m.83,9-.09,39.1,126.75.83V922.54Zm138.28,40.43,126.87,1-.15-39-126.72-1.22ZM1351.91,817.6l271,2.95v-8.26l-276.8-1.14,5.48,6.81m1.2-.35-6.79-.08,1-58.25,276.48,3m.56-55.5.55-54.67-275.71-.84-1,55.25,276.12.26M1492.31,661v38.25h127.25V661Zm-10.5,0H1356.06v37.5h125.75Zm143.85-109.75-275.11-1V558l275,1Zm-272.85-52,273.36,1.5M1352.81,446v-1.75h-54.5l-15.25,870.5h23.09M1143.81,1298l10.75,0,40.25.2-.16,5.67,84.16-.67,2-164-124-1.5-2.25,158.75m128.5,18.25-87.25-2M1286.06,1080l-266.74-2.26-.51,43,267.25,2m-274.28-103.35,276.39,4m0-54.33-275.1-2m11.08-10,124.83,1,1-39-125.82-1.31Zm138-37.67v38.69l123.17.64.5-37.43ZM1291.75,819l-265.69-3.5-1.91,93.66,265.16,3.15Zm0-7.68L1017,807.11m2.27-50.48,273.48,2.65m59.15,58.5-1.8,94.67m5.92-354.4v90.24M1019.59,704l274.12,3,1-56-264.63-2.25,2.25-93.25,264,3.51v-8.51l-272.83-3Zm11.72-45.74V696l125.5,2V658.29Zm135.75,0V698l124.5,1.25v-39.5ZM1024.79,494.42l272.27,4.87m-271-56.25v-1.25l-54.18-.24-22.07,871.24h142.75V1307l39.25-8.25,12-.75,2.75-165-128.25-1.75-5.5,175.75-8.25,3.5,21.5-867.5,271,4.09m-622.91,621L665,1310.72l284.8,2.07m22-869.48-274-3.52L686.15,749.46m338-199.67,8.16,5.75m-6.25,259.93-9-8.36m269,267.43-274.28-3.25,7.54,6.49M1012.81,1307h77.5m857.75-220.58,5.86-5.67-276.86-2.5m278.76-268.5L1679,807.29v8.38l277.26,2.87-8.23,7.72M954.12,1137.79H829.81L825,1307H949.81m5.82-230.26-266.48-1.65-1.67,41,266.64,4.33Zm-138.22,52.35-129.93-2-5.67,178L813.49,1307Zm-152.34,180,16.74-4m7.34-230-18.59-9.32,271.68,2.31,9.91-317-273.54-1.67-9.46,316.33m283-314.66,11.36,5.5m-7.88,320.15-13.39-8.66m-258.43-56,246.67,54.64,9-315.64m-251.33-1.61-8.42,266.53-1.6,50.35m1.68-54.27L932,1014.81m-241-210.35,247,2.18.09-4.17-249.84-2.34Zm-7.12,207.67,7.12-207.67m-2.78-105.17,277.11,3.42,1.54-55.16-261.49-2,1.5-89.5,262.1,2.77.36-11.29-275.35-4.29,12.89,12.81m-2.73,99-.43,37.29,125.5,1,.66-37.5Zm136.61,38.25,125,1.85.69-38.83-125-.34ZM970.48,497.86l-274.73-3.44m-52.29-54.61L369.81,437l-2.26,51.73-35.74,816.36,281,7.66L643.56,437h54l.25,2.75M369.81,490l271.82,2M365.31,539.79l12,15.25,262,2.52.47-13.51-273.24-4.26m9.75,16.75-2,84.75,262,3m-262,5.23-1.75,38.25,127.5,3v-39.5Zm138,2v38.25l122.29,2.53,1.34-38.26Zm122.07,47L360.31,694m-4.2,56,276.37,2.56M346.91,960.26l278.23,1.53m5.52-157.24-276.75-4.3,12.65,11.54,263.66,5.28m-263.66-5.28-2.75,90.75,263.35,1.51-.3,8.76-123.8-1-.49,38.75,122.57,1.09M492.28,911.54l-129.45,0-1.25,38,130.07,1Zm130.9,106-276.27-3.27m11.15,57,263.16,2,.18-5.18-277.34-2.58Zm1.42,0-1.92,42.49,262.08,4.5m-.53,15.19-116.55-1.94-5.08,170.25m115.6,3.34-115.6-3.34m-17.88,0,6.48-176.36-128.52-2.64-10.8,177,132.84,2M369.81,437H300.48L261.9,1302.91l69.91,2.22M514.81,437,356.11,327.13V437m0-109.91H111.81L103.15,490M1552.81,2137.79l73.88-818.55m102.12,826.55-75.53-825.37m23.21,1,220.32,832.35m-516-8,215.34-817m-27.66-4.73-354.68,813.73m-173-6,503.7-807.73M875.44,2131.79,1515,1322.57m-20.6.33L697.81,2131.79m768.61-808-933,800.54m-169.64-6L1438.9,1323.46m-24.46.6L191.76,2118.33m-154.78,0,1343.83-796.16M-48,2061.33l1398.13-737.54m721,832-366-835.37m23.7-1.32,520.56,841.23m168,0L1752.5,1319.24m845.81,853.08-818.42-850.15m32.67,1.29,952.78,848.86m183,0L1836.89,1323.79m21-1.62,1265.94,850.15m-2052-736.53-263,108.34v32l266.32-131-.34-11h-62v-1.67a9.55,9.55,0,0,1,0-3,2.73,2.73,0,0,0,0-1.67,21.16,21.16,0,0,0,0-5,2.37,2.37,0,0,1,1-2.66l1-1.67c1-1.67,0-2.33,0-2.33v-17l2.34-2m0,0v-5h48.66v-10.34l26.75.09.21-18.42h44.38v-5h21.33v-13.17l35.25-.23.75-41.18M807.15,1543.46H665.81l-1.66,30.67,143,2Zm-141.34,0,135.67-47v-7m335.67-131v-43.67l-65.34-1.66-46.5,11.5,67.84.66-.38,38.17m.47-22.56,34.83-9.5m8.78-16-43.2,10v7.08l43.5-12.7m-71.34,62.7.67-50.25h-40.14m-3.86,20.5,43.8-13.45.2-7-47.81,14.1m4.14,15.24,32.17-10.34m103.5-6.16v-36.67l-65.92-.67v5l64.92.34,37-10v-5l-36,10.35m1019.33,10.64,106.25,3.07v-23m125.09,266v32l150.66,3.33v-32.07l-6.69-.08-144-3.18-244-114v12l244,134m-244-146h59.33m-1207.33-59V1378s6.66,2.75,5.66-6.25,6.5-10.08-1.5-10.16l1.5-4.21s3-7-4.14-6.92v-8s12.14-2.5,4.14-14.5l-5.66-1.5s-.84-7.75-5.84-6.25c0,0-3-9.63-16.75-.19,0,0-2.25-7.56-6.5-2.56m0,0-7.25-2.09s-5-3.57-6.5,8l-6.75,2.58h-4s-3.5-3-5.5-2-2.75-7.27-5-6.27-3.25-2.86-3.25-2.86l-5,6.69-4-1.14s-4.25-7.94-5.75,1.69-2,3.87-2,3.87-3.75-5.34-5.25-4.42-4.25-7.52-5.75-6.17-5.75-1.13-3,8.61l-4.5,2s-5.25.25-1.25,6.25,2.75,8.61,2.75,8.61h-4.25v3.39l-4.25-6s-1.66-4-6.21,0,4-12.5-7.79-5.75,0-6.75,0-6.75,3.81-5.09-5.22-4.17-12.78-5.3-12.9,2.44-6.13,5.23-2.63,8.48-5.25,9.72,5.75,8.36,7.75,3.39,7.75,3.39l-4,6.21s-5.5,12-6.87,6.92-4.63-4.11-4.63-4.11-3-6.23-6,0-7.75,0-7.75,0,1.5-9.35-1-8.18-2.75-4.23-2.75-4.23-11-4.36-7.25,3.14-3.75,4.75-3.75,4.75l-4.75-3.66v-12.59s3.75-7.75,0-4.5-5,10.25-5,10.25-13.25-4.25-9.5,8-4,4.21-4,4.21-2.25-8.71-5.5-4.46.25,9,0,9.25-1.3,11.5,3.85,10.5-2.1,5.25-2.1,5.25-6.55,4.5,2.1,4.5c0,0-4.9,4.5,0,4.75s-8.1,5.75-3.35,6.25-1.89,3-1.89,3a3.88,3.88,0,0,0-3.34,4.5c.48,4-15.27,6.75,6,17,0,0-14.25-4.25-17.25,5.25l1,3.52s-18.5,0,1,8.23l-.5,6.25-4.25,2s-9.5-5-2.25,5.75-14.5-2-13,8.25,7,9.25,7,9.25l-4.5,8s-9.75,10.75-4.25,11.5-.5,5-.5,5-13.75,7.75-9.25,7.75h7.25s6.75,11.25,8.5,0,.75-7.25.75-7.25,2.25,7.75,5.5.5,7-2.25,7-2.25.07,8,6,8.5,5.73-4.66,5.73-4.66l5.48-3.34,4.5-2.25s-3,10,0,11,6.5,8.5,11,4.75,9,2.5,9,2.5,16.5-7,5.25-11.5-6.25-6.5-6.25-6.5l-4-.25s-2.5-6.5.25-5.5,14.25,3.25,15.75-2a11.93,11.93,0,0,1,6.5-7.25l7.75.5s-3,10,.5,9.5a32.62,32.62,0,0,0,8-2.75s2.75,6.25,7.5,4,13-4.25,3-9.75-6-13.25-6-13.25l3.75-6.75,1.75-4.75,5.5-5.25,5.5-10,7.06-16.49c-.59-15.38.37-1.48,3.57-2,2.67-.41-1.38,10.47-1.38,10.47s-.5,5,3.25,5.23,4.25,9.5,4.25,9.5,0,1.25,2,.5-.5,16.5,4.5,13.5,2.25-14.75,2.25-14.75,5.25,2.5,6.75,8-6.75,15.5-2.25,15.5,2.75,8.75,6.5,0,5.5.25,5.5.25,4.25-1.75,4.25-5.5,5.25,3.75,5.25,3.75,11,15.25,6-10.25c0,0-6.75-7-3.25-9.25a10.46,10.46,0,0,1,7.5-1.25s4.75.75,2.25-6,6.5-6,6.5-6,3,8.5,4.5,6.5,2.76-7.75,2.76-7.75l6-.25s-6.75,6.75-.5,6.75,6.75,7,7.25,7,8.75-.25,6-8.25,8-4,8-4,1.75,3.75,5.25,3,8,0,7-6.23,2.5,1.81,2.5,1.81m-186.5,77.67s-3.75,14,0,14.75m145-94.23-149.05,75c-3.78,1.29-1.21,19.22-1.21,19.22m81.5-24.58v-65.67m-5.5,68.5,1.25-75.6m25.25,40.6c-3.75,1.75-1.25,17.75-1.25,18.5m.22-27c-8.89,1.25-4.72,27-4.72,27m-7.5-40v23.5c4,5.5,4.25,23.75,4.5,25.5m-6.75-57s-2,33.5,0,34.32,2.25,22.68,2.25,22.68m39-12.25-1.67-13.82m-2.83,11.82.25-14.75m-95.25,17.75c-4.75,3.75,2,25.75,2,25.75m-8.51-22.42s-3,6.23.76,10.92m115-17.25-1.9-35.83m26.9.58c-3,.57,1,27.88,1,27.88m-8-33.38c-2,1.15,0,28.93,0,28.93m-5.74-1.43s1.38-29.76-1.82-29.5m37.3,20v-21.25m-3.24,18.75-.25-19.25m8.25,19.25s-.87-22.36-1.67-21.5m998.42-207.66,129.17,3v71.66s-6.33-6-11-5.66,5,11.66,5,11.66l-4.33,2.34s-3-2.34-5.67-9.46-7.67-4.54-7.67-4.54-6.33-.34-8.66-3-3,1.33-3,1.33l-6.67-1.33c-8.67-6.67-13.67.33-13.67.33s-7.66-1.33-8.92-4.67-8.08.34-8.08.34-4,1.66-6.33-.67-6.33,1-6.33,1-4.34-1.33-5-3.33-7,2-7,2-3,.33-5-3.67-9,1.33-9,1.33,0-6.33-1.67-7.33,4-3.33,4-3.33c-6-7.67-13.33,7.66-13.33,7.66l-6.84,2.67s-2.16,3.67-5.83-2.67-9.67,6.34-9.67,6.34c-1-6-5.66-5.67-10-5s.34-6-3.33-14-5,4.33-8.67,6.66-.33,12-2.33,13.67,4,11.33,4,11.33,1,10.34-2,12.67,6.67,10.33,9,11.67,3.33,7.75,3.33,7.75,6,2.91,9.45,4.25,3.89.66,1.22,5.66-.67,4.67,3.33,5.67,5.34,3.33,3.34,5,7.33,1.29,6.91,4.29,7.09.67,7.75,4.67,10.67-2,10.67-2,5-.67,5.67,3,4.66.33,4.66.33a50,50,0,0,1,6,6.67c3,4,2.66-2.33,2.66-2.33a55.9,55.9,0,0,0,0-7.67c-.33-2.33,6.33-5,6.33-5s3.34,3,2,5a29.47,29.47,0,0,0-4.62,9.33c-1,4,7,1.34,7,1.34s6.33,0,6.33,4,4.41,1,4.41,1,7.92-1.67,1.59,6.33,8.33,6.67,8.33,6.67,4.67-5.67,6.67-.67,5-8.33,5-8.33c1.67,4.33,11.67-.34,14.67-2.34s7.33-.33,7.33-.33l11,3s6-3.33,6-.33,14.67,3.33,14.67,3.33c-3.67,3.67,15,5.33,15,5.33s.66-7.33,7.9,9,11.43,7,11.43,7-.67-9.33-1-12.33-4.67-7.33-4.67-7.33-5-6.67-5.76-8.67,5.1-2.67,5.1-2.67,11.33,2.67,18.32-3.66-13-12.67-13-12.67-4.33-4.67-7-6,6.67-1.67,6-4.67,6-6.33,6.33-10.66-9.33-1.34-11.66-5,0,0,4.31-5.67-1-11.67-1-11.67c2.67-9-.33-4.66-6-11.28s-8,3-8,3a6.48,6.48,0,0,1-5.33-3.83c-2-3.84-5-1.17-5-1.17l-9.67.33m419.34,277.6-77-32.44h-1.75l3.25-11.66h3.5l2.75-4.5s1.25-.75,6,1,3-4.5,3-4.5,5.25,3.25,10.5,3-4-6-4-6-15.25,1-12.2,0,3.7-14.5,3.7-14.5l-8.5-1.5s-10-3-.75-6.5,4-12,3.25-11-9-3.75-4.25-4,6.55-14.3,6.55-14.3,4.45-3.45,7.95-.45.5-9.91.5-9.91c6.25-10.17-4.75-8.59-7.25-7.84s-4.75,4.5-4.75,4.5-.5-4.5-3-4.5,2-6.25,4.5-9.75-1.58-6.5-1.58-6.5-1.42-9.75-.17-11.75-4.75-9.25-4.75-9.25l-5.64-3.25s-2.86-8-.84-9.5-.27-7.25-.27-7.25c2-4.5-7.75-3-7.75-3s-3.75,2.25-6,3.25-5.5-4.5-7-4.5-1.25-7.25-3.25-8.75,6.25-4.25,6.25-4.25,1.5-4.25,0-5.75,2.5-2.5,2.5-2.5c11.75,11.75,9-3.5,9-3.5s-2-4.75,2-10.25-11.5-4.5-11.5-4.5-10.5,4.75-7.25,2-18.5-6.25-18.75-8.5-10.25-4.5-10.25-4.5-4.5-6-4.5-7.83-9,3.08-9.75,0-7.5-.17-8.25-1.29-3,1.29-3,1.29c-3.5-6.58-10.25,10.08-12.25,5.83s-8.5.75-12.75,1.75-7.25,8.75-7.25,8.75a48.63,48.63,0,0,1-7.5-3.25c-3-1.75-8.25,3.25-8.25,3.25s-7-4-4-6.5-5.5-11.12-5.5-11.12-8-1.13-9.75,0-4.5,2.12-4.25,6.62-8.5,1.25-8.5,1.25.25-4.5-2.5-6.25-5.25-1-6.25-6-6.5-2.25-10.25,0-4,5.5-8.5,2.75-2.25,4.75-4.75,6-.75,14.5-4.75,11.25-13-3.25-12-5.25-13.75.75-13.5-2.5-12.75.25-10.25-3-7.5-3.66-7.5-3.66-6.25,2.66-11,.41-3.25,5.5-7,5.5-7.25,3.75-7.25,3.75c-12.75,5.25-2,12-2,12s3,4.75-1.16,5.5-.84,8.75,0,8.75,3.66,8.75,3.66,8.75c-6,1.25-2.5,9-2.5,9-6,8.75,13.25,4.75,13.92,8.5s8.33-.25,10.58,0,2.25,4.5,0,7,2,5-2.75,7.69-5.25,6.81-5.25,6.81a22,22,0,0,1-8.25,2.75c-4,.25,0,11.75,0,11.75s17.5,2.75,6.08,5.5,2.67,5.5-.41,7.75,1.83,5.75,1.83,5.75c-.07,1.48,1.23,2.19,3.11,2.44,4.46.62,12.14-1.29,12.14-1.29,4,7.64,11.5,0,11.5,0l8-2.9s3.5-1.25,4,2.9,11.5-1.65,11.5-1.65,7.25-1.5,6.25,2.88,11.75,2.37,11.75,2.37,12.25-5.5,15,.25,16.25,3,17.25,2,4.75-2.5,6.5-3.5,12.75,2.5,11.47,3.25,3.53,5.75,3.53,5.75,5.75,5.5,8.25,6-6.25,4.25-4.5,4.75-3,3.5-6.25,5.25,2.25,6.75,2.25,6.75,4.25-5.5,8,0,12.5,0,12.5,0c-3.25,4.75,10,6.25,10,6.25,5.25,6.25,11.5,0,11.5,0-1.5,5.25,7.5,4.25,5.25,6.75s10.5,6.5,10.5,6.5,5.25.5,4,5,9.75-5,7.55-3,8.7,3.5,8.7,3.5,3.25,6.25-1.5,6.25-7.2,6.25-7.2,6.25l-1.8,4.5-1.5,5a65.12,65.12,0,0,0-5.25,4.29c-2.75,2.5,7.5,6.5,7.5,6.5l4.5-1.42s9,1.92,6.75,5.67,4,2.25,4,2.25l8.5-.5a9.26,9.26,0,0,1,7.75,1.5c3.5,2.75,6.25-8,6.25-8s4.5-6.5,8.75-9.5,4.75,3.5,4.75,3.5-.75,5.5-1.5,7,5,5.75,5,5.75l5-2.5m-245.12-93.66v22.91m-7.63,0,3.3-24.85m72.81,1.94s-.11,19.66-1.61,24.16,3.5,24.25,3.5,24.25m-8.53-46.52s1.78,17-1,21,4.5,24,4.5,24m25.25-41.67s-1.75,19.42-3.25,19.67,3.25,31.5,3.25,31.5m-4.29-51c-1,2.07-4.46,17.48-4.46,17.48l3.5,31.5m24.25-52.52v13.77s-1.5,10.25-3.5,12.5,0,33.75,0,33.75m7.93-56.67s-.18,5.17-.18,12.42a25.88,25.88,0,0,1-4.25,13.29l1.5,32.46m35.12-25.2s-1.62,15.7-1.12,19.7,0,26.75,0,26.75m-4.08-47.72s-3.17,23.22-2.17,26.47,0,22.5,0,22.5m16.11-45c-1.5,1.75,2.14,15.54,2.14,15.54l2.5,22.5m-9-38.18c-2.74,4.57,2,16.93,2,16.93l2.36,21.25m69.36,39.25s-.72-16.5-.22-17.75-1.4-9.63-1.4-9.63m-4.6,7.08,1.75,20.3m14.25,1.5,4.25-8.5,1.75-15-4.37-4-1.63,17.25-6,10.25m427.75-452L2875.31,80.54l-513.75,1.25L2359.06,1099s-8.25-2.25-11.75-2.3-6.75-7-6.75-7-5.75-9-7.75-7.41-1,8.91-3.5,9.91-3,11-3,11-9,7.5-9,5-16,3-16,3-8.62-7-7.56,0-2.56,17-2.56,17-4.6,7.5-2.24,9.5,2.24,14,2.24,14,7.5,1,2.56,6,2.56,10,2.56,10l1.22,4.5s-8.34,13.5-3.78,19.5,3.78,8.5,3.78,8.5l-1.22,8.84s10,9.16,5,16.16,2,16.5,0,17.5-5,8.5-5,8.5l3.11,27s5.61,5.5,0,8.5-5.67,12.34-5.67,12.34l5.67,3.16s-5.86,1.21-3.11,8.36,6.88,5,6.88,5m168.5,28.6,12.62-5.49,6.55-5,3.95,7.5s8.5,0,15.5,4,10-4.5,10-4.5,11-5,12,2,15-1,15-1,7.5-7.5,7.5.5,42.5-3,43.5.5,24-3.5,24-3.5,15.5.5,16.78,7.24,54.72-2.74,62.72-3.24,24-.5,35,2.5,23-4,26.5-6,18.5-5,21,0,11.5,6,11.5,6h11l16.5-7s8-6,9.5-.18,16.5-1.1,16.5-1.1c0,3.72,24.5-3.22,24.5-3.22s12.5-1.5,13,2.15,16-3.15,16-3.15,9.5-6,12.11-9.5-2.11-4.55-2.11-4.55l-4-9a74.48,74.48,0,0,1,5.25-11c3.25-5.5-3.75-14.5-3.75-14.5,8-3.5-3.5-8,1.92-14.5s-2.92-11-2.92-11,1.5-8,0-11.5-6.5-.5-.5-5.5-.5-13.5,2.21-16.5,0-7.5,0-7.5-9.21-32-4.21-34,2.5-10.5,4-15.5-5.43-10-5.43-10l-2.57-10s-4-5,1.5-13.5-12-20.5-12-24-9.5,0-9.5,0-10.5.5-15,3.4-20.5-3.4-20.5-3.4l-4.5-8.5s-7-2-7-7.6-13.5-2.4-13.5-2.4-14,5.5-18,7,0,11.5,0,11.5h-10l-3.5-2.5s-6.5-2.5-10.5,2.5-15,3-15,3-7,0-3-7.5-6-4-6-4c1.5-7-9-7-9-7s-7-8-11.5-6,2,3.94,2,3.94-4,10.56-5.5,7.56-12.5,7-12.5,7-9.5,6.5-7-3-3-9-4-11.56-6.5,8.56-6.5,11.56l-6,6s-2-10-3-14-9.5-1-9.5-1v8s-8.5,4.5-12,7-11.5-6-11.5-6-10-2.5-11-7.5-4,2-4,2a75.33,75.33,0,0,0-3,7.5c-.5,2-9-1.5-10.5-.5s-6,0-6.5-3.5-11-4-12.5-4,0,8,0,8-5,2.5-7-2-6.5,1.5-7.5,2.5-9.5-1.5-9.5-1.5-7.5.5-9.5-2-4.5,0-4.5,0-15.5,2.5-15-2-20,.5-21.5-2-13,5.5-15.5,7-8.5,2.14-8.5,2.14-6.5,2.86-10-4.14-8.5.5-10.5,1.5-11-6-11-6a84.88,84.88,0,0,1-8,5.5c-3.5,2-3-8.5-6.5-8.5s-4.5,11.59-4.5,11.59-7,.91-8-4.59-7.5-3-7.5-3-2.5.5-4.5,1-4,1.5-4-5.5-3.5-7.5-3.5-7.5l-4,8.5c-5-3.5-4.5,3.5-3.5,6s-5.5,5.09-5.5,5.09h-8.5s-3-3.59,2.55-8.09-7.05-13-7.05-5.5-10.5,9-10.5,9-7.5,0-7.2-3-4.8,4-8.3,7-7.5-6.5-7.5-6.5l2.5-14.79s1-10.71-2-11.71-6,6.5-7,12.34-7.83,11.16-7.83,11.16M41.5,950.54m221.16,335.24s-12.85,11.65-13.35,3.58-10.5,2.85-10.5,2.85-11,1.91-11,0-16-2.79-16-2.79-19.61,4.37-20.05,1.87-10.45-1.93-10.45-1.93-20.2,5.07-21.6,0-12.9.06-12.9.06-34,4.63-35,0-37-3.64-34.5-3.64-26.65-5.45-18.07-10l-1.72,19.11,204.38,8M298,493.3c-3.27,3-14.66.49-14.66.49l-5.84-9.5s-2.16-3-.16-13-15.41-3-15.41-3-13.09,15.5-15.59,12.5l-14,12s-7,1-6.5-8.5-23.5-4-23.5-4-21.5.5-23,1-4.5,3.5-6.5,3.5-4-6-6.5-8.5-3-11-3-11-1-3.5-6,0-4.5,11-3.5,16.8-5.5,8-5.5,8a59.07,59.07,0,0,0-12.5,0,10.54,10.54,0,0,1-11.5-7.25c-1-3.5-17,7.25-17,7.25s-5.5,7.25-9.5,5.25-8,13-8,13-18.5,9.5-26.5,10,0,18.5,0,18.5-3,15.5-5,17.5.46,9-2,11-1.5,9-1.5,9,2.5,16.5-2,18.5,1.5,20.5,1.5,20.5-.5,8.5,3,9.5-2.46,19-2.46,19c-6,3.5,1.41,23.5,1.41,23.5,3.91,6.5-4.41,18.5-4.41,18.5s-.5,10,3.5,17-6.5,15-6.5,15,2.5,11.5-1.5,17,1.5,11,1.5,11c-6,4,.5,30.5.5,30.5s2,22.5-1.5,25.5-3.26,9.5-3.26,9.5l2.76,12.5c-8.5,5.5,2,22.5,2,22.5s-2.5,14.5-4.76,16-3,14.63-3,14.63l3,14.37s1.26,11,0,11.5-3,17-3,17l3,13.5s-.74,13-3,19.25,5.81,7.25,5.81,7.25l-2.76,11s2.76,9.5,0,11,0,16.5,0,16.5l-3,3v15l3,6.5s.76,13,0,15a12.78,12.78,0,0,0,0,7.5c.74,2,1.26,9.5-3,11s1.31,9.5,0,11.25,5.81,11.75,3,13.25,3.26,16,0,16,4.26,14,0,15.5-.24,9.5,1.76,12.5-1.76,7.5-1.76,7.5v14c-5.76,1.5,3.26,12.5,0,13.5s0,10,0,10v8s4.26,18,0,20,4.26,7.5,0,11.5,0,9.5,0,9.5,3.76,9.5,0,11.5-4.24,8.5-3,11-3.19,1.5-6.94,2.5,7.25,11,10.38,12.5-2.13,4-8,6.5.83,9.5,0,15,22.26,1,22.26,1m2147.09,259.65-1271.52-8.67,1524-1347.5v-55.5h-14v74.5h14l31.5-28,33,28h21L2497.81,162l40-37.25h-18.5ZM2560,170.63h60.17s20.16.66,20.08-17.09V140.38s-3.5-17.75-23.08-17.59h-43.67s-26.67-.16-27.33,30.42l-.5,23.75s-.17,20.75,25.91,21.08h65.5l-.08-13.66-63.67-.42S2558.23,183.21,2560,170.63Zm115.58-21.09c-21.75-.75-21.75,17.75-21.75,17.75v14.25c4.75,16.5,23.5,16.5,23.5,16.5l71.25,1.25V149.54c-.25-25.5-29.5-26.75-29.5-26.75h-59v13.88s45.5.12,59.5,0,15.75,12.87,15.75,12.87S2697.31,150.29,2675.56,149.54Zm-55.83,7a6.37,6.37,0,0,0,6.83-6.33v-6.08c0-8.42-10-7.42-10-7.42H2577.4c-17.67.17-17.42,13.67-17.42,13.67v6.16Zm60.08,6.75c-12.75.75-11.5,7.75-11.5,7.75v4.75c.25,8.75,12.25,9.25,12.25,9.25h55V163.29ZM2438.15,297.52l1.5,776.91h-15.5V1082l415,9.5V1083h-11l-6-785.5h10.5l-.5-7.5h-18v-6h15v-12.5l-422.5,2.5v11.5h36v6l-19.34-.39.34,6.39Zm8.58-13.73v7.34h178.33v-7.34Zm182.83,0v7.34h179v-7.34Zm-191.41,13.73h384" transform="translate(48.23 -80.04)"/></svg>
